HIERARCHY
ROOT joint_Root
{
	OFFSET 0.0 0.0 0.0
	CHANNELS 6 Xposition Yposition Zposition Zrotation Xrotation Yrotation 
	JOINT Hips
	{
		OFFSET 4.5925 91.4895 -427.239
		CHANNELS 6 Xposition Yposition Zposition Zrotation Xrotation Yrotation 
		JOINT Spine
		{
			OFFSET 15.7357 0.0 0.0
			CHANNELS 6 Xposition Yposition Zposition Zrotation Xrotation Yrotation 
			JOINT Chest
			{
				OFFSET 8.98455 -0.406207 0.0
				CHANNELS 6 Xposition Yposition Zposition Zrotation Xrotation Yrotation 
				JOINT Neck
				{
					OFFSET 16.3773 0.0 0.0
					CHANNELS 6 Xposition Yposition Zposition Zrotation Xrotation Yrotation 
					JOINT Head
					{
						OFFSET 6.45672 0.0 0.0
						CHANNELS 6 Xposition Yposition Zposition Zrotation Xrotation Yrotation 
						End Site
						{
							OFFSET 0.0 0.0 0.0
						}
					}
				}
				JOINT Shoulder_L
				{
					OFFSET 12.9942 -0.242716 4.98039
					CHANNELS 6 Xposition Yposition Zposition Zrotation Xrotation Yrotation 
					JOINT UpperArm_L
					{
						OFFSET 5.34809 0.0 0.0
						CHANNELS 6 Xposition Yposition Zposition Zrotation Xrotation Yrotation 
						JOINT LowerArm_L
						{
							OFFSET 24.3286 1.87007e-05 0.0
							CHANNELS 6 Xposition Yposition Zposition Zrotation Xrotation Yrotation 
							JOINT Hand_L
							{
								OFFSET 22.2916 0.0 0.0
								CHANNELS 6 Xposition Yposition Zposition Zrotation Xrotation Yrotation 
								End Site
								{
									OFFSET 0.0 0.0 0.0
								}
							}
						}
					}
				}
				JOINT Shoulder_R
				{
					OFFSET 12.9945 -0.242716 -4.98039
					CHANNELS 6 Xposition Yposition Zposition Zrotation Xrotation Yrotation 
					JOINT UpperArm_R
					{
						OFFSET -5.34813 0.0 0.0
						CHANNELS 6 Xposition Yposition Zposition Zrotation Xrotation Yrotation 
						JOINT LowerArm_R
						{
							OFFSET -24.3289 0.000322201 0.0
							CHANNELS 6 Xposition Yposition Zposition Zrotation Xrotation Yrotation 
							JOINT Hand_R
							{
								OFFSET -22.2915 -0.000108084 0.0
								CHANNELS 6 Xposition Yposition Zposition Zrotation Xrotation Yrotation 
								End Site
								{
									OFFSET 0.0 0.0 0.0
								}
							}
						}
					}
				}
			}
		}
		JOINT UpperLeg_L
		{
			OFFSET -2.19248 -6.46944 0.0
			CHANNELS 6 Xposition Yposition Zposition Zrotation Xrotation Yrotation 
			JOINT LowerLeg_L
			{
				OFFSET 39.0811 0.0 -1.23785e-05
				CHANNELS 6 Xposition Yposition Zposition Zrotation Xrotation Yrotation 
				JOINT Foot_L
				{
					OFFSET 40.9854 0.0 -1.26872e-05
					CHANNELS 6 Xposition Yposition Zposition Zrotation Xrotation Yrotation 
					JOINT Toes_L
					{
						OFFSET 11.7543 0.0 0.0
						CHANNELS 6 Xposition Yposition Zposition Zrotation Xrotation Yrotation 
						End Site
						{
							OFFSET 0.0 0.0 0.0
						}
					}
				}
			}
		}
		JOINT UpperLeg_R
		{
			OFFSET -2.19251 6.46944 0.0
			CHANNELS 6 Xposition Yposition Zposition Zrotation Xrotation Yrotation 
			JOINT LowerLeg_R
			{
				OFFSET -39.0811 -0.00228153 -0.0401928
				CHANNELS 6 Xposition Yposition Zposition Zrotation Xrotation Yrotation 
				JOINT Foot_R
				{
					OFFSET -40.9854 0.0 0.0
					CHANNELS 6 Xposition Yposition Zposition Zrotation Xrotation Yrotation 
					JOINT Toes_R
					{
						OFFSET -11.7543 0.0 0.0
						CHANNELS 6 Xposition Yposition Zposition Zrotation Xrotation Yrotation 
						End Site
						{
							OFFSET 0.0 0.0 0.0
						}
					}
				}
			}
		}
	}
}
MOTION
Frames:	4
Frame Time:	0.0333333
0.000000 0.000000 0.000000 0.000000 0.000000 -0.000000 -2.357890 90.775800 -1.284340 88.409900 -2.009940 12.351500 15.735700 0.000005 -0.000001 90.205400 76.680100 -89.669800 8.984550 -0.406207 -0.000000 18.873200 0.145231 1.049710 16.377300 -0.000001 -0.000001 3.244010 -3.876460 1.514870 6.456720 -0.000001 -0.000000 -11.232700 -3.711500 2.602950 12.994200 -0.242716 4.980390 -91.390300 8.052900 -80.171200 5.348090 -0.000007 -0.000001 -60.069900 31.165100 -25.857000 24.328600 0.000019 0.000005 11.292200 23.044100 -27.026600 22.291600 -0.000001 0.000005 12.300400 5.222980 2.136260 12.994500 -0.242716 -4.980390 89.157100 11.319800 -85.713500 -5.348130 -0.000001 -0.000004 -54.488700 37.289700 -24.365300 -24.328900 0.000322 -0.000009 2.071180 5.233860 -21.635900 -22.291500 -0.000108 -0.000004 15.853700 5.408160 -3.204650 -2.192480 -6.469440 -0.000000 -171.800000 -12.653700 0.557064 39.081100 -0.000007 -0.000012 -0.156369 0.251600 31.861200 40.985400 -0.000006 -0.000013 0.006085 8.064100 -69.564900 11.754300 -0.000000 0.000003 -0.000184 -0.001728 -16.642900 -2.192510 6.469440 -0.000001 174.561000 23.296900 -176.916000 -39.081100 -0.002282 -0.040193 -0.204212 0.358389 30.071900 -40.985400 0.000008 0.000006 5.510770 16.854600 -70.549200 -11.754300 -0.000006 -0.000006 -0.002538 -0.035258 -18.006900
0.000000 0.000000 0.000000 0.000000 0.000000 -0.000000 -2.370430 90.776800 -1.302710 88.416100 -1.982460 12.354900 15.735700 0.000005 -0.000001 90.222700 76.668800 -89.672900 8.984550 -0.406207 -0.000000 18.895800 0.154688 1.076620 16.377300 -0.000001 -0.000001 3.277910 -3.875720 1.555780 6.456720 -0.000001 -0.000000 -11.212500 -3.717040 2.630210 12.994200 -0.242716 4.980390 -91.404500 8.015390 -80.027800 5.348090 -0.000007 -0.000001 -59.784300 31.375500 -26.012800 24.328600 0.000019 0.000005 11.640900 22.463700 -28.332100 22.291600 -0.000001 0.000005 12.046000 5.230860 1.932860 12.994500 -0.242716 -4.980390 89.151700 11.325600 -85.688200 -5.348130 -0.000001 -0.000004 -54.477400 37.263900 -24.396300 -24.328900 0.000322 -0.000009 2.064720 5.200830 -21.698600 -22.291500 -0.000108 -0.000004 15.944300 5.408450 -3.214190 -2.192480 -6.469440 -0.000000 -171.813000 -12.615700 0.540675 39.081100 -0.000007 -0.000012 -0.156579 0.251969 31.857900 40.985400 -0.000006 -0.000013 -0.004025 8.049460 -69.545600 11.754300 -0.000000 0.000003 -0.000178 -0.001675 -16.640900 -2.192510 6.469440 -0.000001 174.558000 23.316500 -176.924000 -39.081100 -0.002282 -0.040193 -0.205097 0.359861 30.075800 -40.985400 0.000008 0.000006 5.521730 16.861600 -70.544800 -11.754300 -0.000006 -0.000006 -0.002534 -0.035207 -18.004800
0.000000 0.000000 0.000000 0.000000 0.000000 -0.000000 -2.390900 90.784600 -1.321200 88.427400 -1.953900 12.356300 15.735700 0.000005 -0.000001 90.325800 76.661400 -89.750900 8.984550 -0.406207 -0.000000 18.910000 0.204275 1.118610 16.377300 -0.000001 -0.000001 3.376830 -3.923080 1.592090 6.456720 -0.000001 -0.000000 -11.229900 -3.816930 2.613120 12.994200 -0.242716 4.980390 -91.416100 8.008780 -79.938900 5.348090 -0.000007 -0.000001 -59.359200 31.568800 -26.151900 24.328600 0.000019 0.000005 11.977500 21.407100 -30.166700 22.291600 -0.000001 0.000005 11.888100 5.241110 1.666250 12.994500 -0.242716 -4.980390 89.140400 11.342500 -85.637200 -5.348130 -0.000001 -0.000004 -54.449500 37.219000 -24.348500 -24.328900 0.000322 -0.000009 2.069960 5.178270 -21.834200 -22.291500 -0.000108 -0.000004 15.909200 5.408820 -3.226370 -2.192480 -6.469440 -0.000000 -171.821000 -12.586900 0.546517 39.081100 -0.000007 -0.000012 -0.154744 0.249456 31.812700 40.985400 -0.000006 -0.000013 -0.027414 8.031210 -69.504900 11.754300 -0.000000 0.000003 -0.000170 -0.001618 -16.638800 -2.192510 6.469440 -0.000001 174.567000 23.339500 -176.920000 -39.081100 -0.002282 -0.040193 -0.204018 0.358425 30.046200 -40.985400 0.000008 0.000006 5.526410 16.826700 -70.520700 -11.754300 -0.000006 -0.000006 -0.002403 -0.033654 -17.941600
0.000000 0.000000 0.000000 0.000000 0.000000 -0.000000 -2.411540 90.784100 -1.354960 88.427900 -1.905340 12.316300 15.735700 0.000005 -0.000001 90.445400 76.661500 -89.843500 8.984550 -0.406207 -0.000000 18.909100 0.261433 1.163280 16.377300 -0.000001 -0.000001 3.446270 -3.974650 1.631370 6.456720 -0.000001 -0.000000 -11.185600 -3.919820 2.632490 12.994200 -0.242716 4.980390 -91.410300 7.939710 -79.894600 5.348090 -0.000007 -0.000001 -59.051200 31.472700 -26.338000 24.328600 0.000019 0.000005 12.529800 20.550500 -32.338400 22.291600 -0.000001 0.000005 11.635900 5.254980 1.300630 12.994500 -0.242716 -4.980390 89.132100 11.355200 -85.600100 -5.348130 -0.000001 -0.000004 -54.368700 37.187700 -24.376500 -24.328900 0.000322 -0.000009 2.017030 5.031840 -21.887600 -22.291500 -0.000108 -0.000004 15.750700 5.407180 -3.172160 -2.192480 -6.469440 -0.000000 -171.830000 -12.538900 0.455184 39.081100 -0.000007 -0.000012 -0.159177 0.256461 31.826700 40.985400 -0.000006 -0.000013 -0.045055 8.026760 -69.472400 11.754300 -0.000000 0.000003 -0.000175 -0.001652 -16.640100 -2.192510 6.469440 -0.000001 174.603000 23.366300 -176.993000 -39.081100 -0.002282 -0.040193 -0.203310 0.356971 30.062200 -40.985400 0.000008 0.000006 5.548620 16.828100 -70.516300 -11.754300 -0.000006 -0.000006 -0.002524 -0.035088 -18.000000
